<svg width="57" height="57" viewBox="0 0 57 57" fill="none" xmlns="http://www.w3.org/2000/svg">
<g opacity="0.7" clip-path="url(#clip0)">
<path d="M54.8672 25.1527L28.4848 51.5376L2.10233 25.1527C1.61014 24.6772 0.825692 24.6909 0.350235 25.1831C-0.11349 25.6633 -0.11349 26.4246 0.350235 26.9047L27.61 54.1644C28.0938 54.6481 28.8781 54.6481 29.3621 54.1644L56.6218 26.9047C57.0972 26.4125 57.0835 25.628 56.5913 25.1526C56.1111 24.6887 55.3499 24.6887 54.8697 25.1526L54.8672 25.1527Z" fill="#858585"/>
<path d="M54.8672 2.84942L28.4848 29.2343L2.10233 2.84942C1.61014 2.37396 0.825692 2.38767 0.350235 2.87985C-0.11349 3.36007 -0.11349 4.12129 0.350235 4.60151L27.61 31.8612C28.0938 32.3449 28.8781 32.3449 29.3621 31.8612L56.6218 4.60151C57.114 4.12605 57.1276 3.34172 56.6522 2.84942C56.1768 2.35723 55.3924 2.34364 54.9001 2.81898C54.8898 2.82897 54.8797 2.83908 54.8697 2.84942H54.8672Z" fill="#858585"/>
<path d="M28.4848 54.5286C28.156 54.5292 27.8403 54.3991 27.6076 54.1668L0.347837 26.9071C-0.12762 26.4149 -0.113913 25.6304 0.378272 25.155C0.858491 24.6912 1.61971 24.6912 2.09981 25.155L28.4847 51.5374L54.8672 25.1525C55.3593 24.6771 56.1438 24.6908 56.6193 25.183C57.0831 25.6632 57.0831 26.4244 56.6193 26.9046L29.3597 54.1643C29.1278 54.3968 28.8132 54.5278 28.4848 54.5286Z" fill="#858585"/>
<path d="M28.4848 32.2255C28.156 32.2261 27.8404 32.096 27.6076 31.8637L0.347837 4.60395C-0.12762 4.11177 -0.113913 3.32731 0.378272 2.85186C0.858491 2.38813 1.61971 2.38813 2.09993 2.85186L28.4848 29.2343L54.8673 2.84942C55.3427 2.35723 56.1271 2.34364 56.6194 2.81898C57.1117 3.29432 57.1251 4.07878 56.6498 4.57108C56.6398 4.58141 56.6297 4.59152 56.6194 4.60151L29.3597 31.8612C29.1278 32.0937 28.8132 32.2247 28.4848 32.2255Z" fill="#858585"/>
</g>
<defs>
<clipPath id="clip0">
<rect width="57" height="57" fill="white"/>
</clipPath>
</defs>
</svg>
