<svg width="26" height="25" viewBox="0 0 26 25" fill="none" xmlns="http://www.w3.org/2000/svg">
<g clip-path="url(#clip0)">
<path d="M10.6966 11.7501C11.2362 11.4891 11.6441 11.1985 11.9236 10.8844C12.4209 10.3187 12.6663 9.56866 12.6663 8.6389C12.6663 7.73414 12.4209 6.96064 11.9301 6.31215C11.111 5.25581 9.7248 4.71514 7.76489 4.68701H0V19.9273H7.23997C8.05579 19.9273 8.81147 19.8601 9.51028 19.7226C10.2091 19.5835 10.8136 19.3288 11.3256 18.9569C11.7806 18.6335 12.1609 18.2319 12.4631 17.7584C12.9409 17.0427 13.1798 16.2317 13.1798 15.3285C13.1798 14.4534 12.9702 13.7081 12.5542 13.0955C12.1332 12.483 11.5157 12.0345 10.6966 11.7501ZM3.20314 7.3341H6.70043C7.46911 7.3341 8.10291 7.4138 8.60021 7.57162C9.1755 7.80133 9.46315 8.26856 9.46315 8.98111C9.46315 9.62023 9.24376 10.0671 8.80985 10.3187C8.37269 10.5703 7.80552 10.6969 7.10996 10.6969H3.20314V7.3341ZM8.73347 17.0146C8.34669 17.1943 7.80227 17.2834 7.10508 17.2834H3.20314V13.219H7.15871C7.84777 13.2236 8.38406 13.3112 8.76759 13.4752C9.45015 13.7721 9.7898 14.3159 9.7898 15.1113C9.7898 16.0489 9.43878 16.6802 8.73347 17.0146Z" fill="#AAAAAA"/>
<path d="M23.5009 5.39795H16.6152V7.29498H23.5009V5.39795Z" fill="#AAAAAA"/>
<path d="M25.8932 12.8848C25.7502 12.0019 25.4349 11.2252 24.9441 10.5549C24.4062 9.79544 23.7237 9.23914 22.8932 8.88755C22.066 8.5344 21.1348 8.35782 20.098 8.35939C18.3575 8.35939 16.9436 8.88287 15.8499 9.92201C14.7594 10.9643 14.2134 12.4628 14.2134 14.4161C14.2134 16.4991 14.8163 18.0039 16.0287 18.9274C17.2361 19.8525 18.6305 20.3135 20.2134 20.3135C22.1294 20.3135 23.6196 19.765 24.6841 18.6712C25.365 17.9805 25.7502 17.3007 25.8347 16.6335H22.6624C22.4788 16.9632 22.2659 17.221 22.0221 17.4086C21.5801 17.7523 21.0048 17.9242 20.2995 17.9242C19.6283 17.9242 19.0595 17.782 18.585 17.4992C17.8017 17.046 17.3921 16.2522 17.3401 15.1224H25.9972C26.0102 14.1489 25.9777 13.4004 25.8932 12.8848ZM17.4181 13.177C17.5319 12.4441 17.8082 11.8628 18.247 11.4331C18.6857 11.0049 19.3065 10.7893 20.1012 10.7877C20.8342 10.7877 21.4468 10.9893 21.9458 11.394C22.4382 11.8019 22.7161 12.3941 22.7729 13.177H17.4181Z" fill="#AAAAAA"/>
</g>
<defs>
<clipPath id="clip0">
<rect width="26" height="25" fill="white"/>
</clipPath>
</defs>
</svg>
