<svg width="44" height="45" viewBox="0 0 44 45" fill="none" xmlns="http://www.w3.org/2000/svg">
<path d="M7.70842 18.7846L21.6031 5.75829C22.0558 5.33471 22.7521 5.34503 23.1921 5.7816L36.3149 18.8078C36.5395 19.0308 36.6665 19.3376 36.6665 19.6577V38.3681C36.6665 39.0222 36.1482 39.5523 35.5086 39.5523H25.8595C25.22 39.5523 24.7016 39.0222 24.7016 38.3681V29.684H19.2981V38.3681C19.2981 39.0222 18.7798 39.5523 18.1402 39.5523H8.49117C7.85164 39.5523 7.33327 39.0226 7.33327 38.3681V19.6577C7.33327 19.3257 7.46913 19.0092 7.70842 18.7846ZM9.64907 37.1839H16.9823V28.4998C16.9823 27.8457 17.5007 27.3156 18.1402 27.3156H25.8595C26.499 27.3156 27.0174 27.8457 27.0174 28.4998V37.1839H34.3507V20.1586L22.363 8.25935L9.64901 20.1788V37.1839H9.64907Z" fill="#AAAAAA"/>
</svg>
