<svg width="299" height="349" viewBox="0 0 299 349" fill="none" xmlns="http://www.w3.org/2000/svg">
<g clip-path="url(#clip0)">
<g opacity="0.99" filter="url(#filter0_d)">
<path opacity="0.99" d="M24.7557 300.741C24.7557 303.617 23.4697 304.896 20.5761 304.896H7.07288C4.17933 304.896 2.89331 303.617 2.89331 300.741V289.235H9.96643V298.823H17.6826V258.554H24.7557V300.741Z" fill="white"/>
<path opacity="0.99" d="M51.1196 304.896H44.368V303.937C42.7604 304.256 41.1529 304.576 39.5454 304.576C37.6164 304.896 36.0088 304.896 34.7228 304.896C32.1508 304.896 30.8647 303.617 30.8647 301.06V274.853H37.6164V299.143H44.0465V274.853H50.7981V304.896H51.1196Z" fill="white"/>
<path opacity="0.99" d="M76.8395 304.896H70.4094V303.937C68.8019 304.256 67.1944 304.256 65.9083 304.576C63.9793 304.896 62.3718 304.896 61.4073 304.896C58.8352 304.896 57.5492 303.617 57.5492 301.38V290.514C57.5492 287.957 58.8352 286.679 61.4073 286.679H70.7309V279.647H64.3008V284.441H58.1922V278.689C58.1922 276.132 59.4782 274.853 62.0503 274.853H73.6245C76.1965 274.853 77.4825 276.132 77.4825 278.689V304.896H76.8395ZM70.0879 299.462V291.473H63.6578V299.782L70.0879 299.462Z" fill="white"/>
<path opacity="0.99" d="M102.881 304.896H96.1296V280.606H89.6995V304.896H82.9479V274.853H89.6995V275.812C91.307 275.493 92.9145 275.173 94.5221 275.173C96.4511 274.853 98.0586 274.853 99.3447 274.853C101.917 274.853 103.203 276.132 103.203 278.369V304.896H102.881Z" fill="white"/>
<path opacity="0.99" d="M128.602 301.06C128.602 303.617 127.316 304.896 124.744 304.896H112.848C110.276 304.896 108.99 303.617 108.99 301.06V278.369C108.99 275.812 110.276 274.534 112.848 274.534H124.744C127.316 274.534 128.602 275.812 128.602 278.369V289.235L126.673 291.153H115.742V299.462H122.172V294.349H128.602V301.06ZM121.85 286.998V279.967H115.42V286.998H121.85Z" fill="white"/>
<path opacity="0.99" d="M153.679 301.06C153.679 303.617 152.393 304.896 149.821 304.896H138.247C135.675 304.896 134.389 303.617 134.389 301.06V294.669H140.819V299.782H146.928V294.988L136.318 288.916C135.032 287.957 134.389 286.998 134.389 285.72V278.689C134.389 276.132 135.675 274.853 138.247 274.853H149.5C152.072 274.853 153.358 276.132 153.358 278.689V284.761H146.928V280.287H140.819V284.441L151.107 290.514C152.393 291.153 153.358 292.431 153.358 293.71V301.06H153.679Z" fill="white"/>
<path opacity="0.99" d="M196.44 283.802C196.44 286.679 195.154 288.277 192.261 288.277H181.008V305.215H173.935V258.554H192.261C195.154 258.554 196.44 259.832 196.44 262.709V283.802ZM189.367 282.204V264.626H180.686V282.204H189.367Z" fill="white"/>
<path opacity="0.99" d="M221.517 301.061C221.517 303.617 220.231 304.896 217.659 304.896H205.763C203.191 304.896 201.905 303.617 201.905 301.061V278.369C201.905 275.812 203.191 274.534 205.763 274.534H217.659C220.231 274.534 221.517 275.812 221.517 278.369V289.235L219.588 291.153H208.657V299.463H215.087V294.349H221.517V301.061ZM220.552 265.266L211.872 272.936H206.728V272.616L211.872 264.626L220.552 265.266ZM215.087 286.998V279.967H208.657V286.998H215.087Z" fill="white"/>
<path opacity="0.99" d="M246.916 287.637H240.164V280.926H234.699V305.215H227.947V274.853H234.699V275.812C235.985 275.493 237.592 275.173 238.878 275.173C240.486 274.853 242.093 274.853 243.058 274.853C245.63 274.853 246.916 276.132 246.916 278.369V287.637Z" fill="white"/>
<path opacity="0.99" d="M271.35 301.06C271.35 303.617 270.064 304.896 267.492 304.896H255.596C253.024 304.896 251.738 303.617 251.738 301.06V278.369C251.738 275.812 253.024 274.534 255.596 274.534H267.492C270.064 274.534 271.35 275.812 271.35 278.369V289.235L269.421 291.153H258.49V299.462H264.92V294.349H271.35V301.06ZM264.92 286.998V279.967H258.49V286.998H264.92Z" fill="white"/>
<path opacity="0.99" d="M294.499 304.896H276.495V300.741L286.461 280.287H277.138V274.853H294.499V279.008L284.532 299.462H294.499V304.896Z" fill="white"/>
</g>
<g filter="url(#filter1_d)">
<path d="M0 323.113H2.89355V343.247H0V323.113Z" fill="white"/>
<path d="M21.5414 329.505C22.8274 330.783 23.1489 332.381 23.1489 334.299V342.928H20.2553V334.618C20.2553 333.02 19.9338 332.062 19.2908 331.422C18.6478 330.783 17.6833 330.144 16.0758 330.144C14.4682 330.144 13.5037 330.464 12.5392 331.422C11.5747 332.381 11.2532 333.66 11.2532 335.258V343.247H8.68115V327.907H11.2532V330.144C11.8962 329.505 12.5392 328.866 13.5037 328.226C14.4682 327.587 15.4328 327.587 16.7188 327.587C18.6478 327.907 20.2553 328.546 21.5414 329.505Z" fill="white"/>
<path d="M36.9734 342.289C36.6519 342.608 36.0089 342.928 35.3659 342.928C34.7229 343.247 34.0799 343.247 33.4369 343.247C31.8293 343.247 30.5433 342.928 29.9003 341.969C29.2573 341.01 28.6143 340.051 28.6143 338.453V330.144H26.0422V327.907H28.6143V324.711H31.5078V327.907H36.0089V330.144H31.5078V338.453C31.5078 339.412 31.8293 340.051 32.1508 340.371C32.4723 340.691 33.1154 341.01 34.0799 341.01C35.0444 341.01 35.6874 340.691 36.3304 340.371L36.9734 342.289Z" fill="white"/>
<path d="M53.3699 336.536H40.8312C41.1527 337.814 41.4742 339.093 42.7603 339.732C43.7248 340.691 45.0108 341.01 46.6183 341.01C48.5474 341.01 49.8334 340.371 51.1194 339.093L52.7269 341.01C52.0839 341.969 51.1194 342.289 50.1549 342.928C49.1904 343.247 47.9043 343.567 46.6183 343.567C45.0108 343.567 43.4033 343.247 42.4388 342.608C41.1527 341.969 40.1882 341.01 39.5452 339.732C38.9022 338.453 38.5807 337.175 38.5807 335.577C38.5807 333.979 38.9022 332.701 39.5452 331.422C40.1882 330.144 41.1527 329.185 42.4388 328.546C43.7248 327.907 45.0108 327.587 46.2968 327.587C47.9043 327.587 49.1904 327.907 50.1549 328.546C51.4409 329.185 52.0839 330.144 52.7269 331.422C53.3699 332.701 53.6914 333.979 53.6914 335.577C53.6914 335.897 53.6914 336.216 53.3699 336.536ZM42.7603 331.422C41.7957 332.381 41.4742 333.34 41.1527 334.618H51.1194C51.1194 333.34 50.4764 332.381 49.5119 331.422C48.5474 330.464 47.5828 330.144 46.2968 330.144C44.6893 330.144 43.4033 330.783 42.7603 331.422Z" fill="white"/>
<path d="M62.3718 328.546C63.3363 328.226 64.6223 327.907 65.9083 327.907V330.463C65.9083 330.463 65.5868 330.463 65.2653 330.463C63.6578 330.463 62.6933 330.783 61.7288 331.742C60.7643 332.701 60.4427 333.979 60.4427 335.577V343.247H57.5492V327.907H60.1212V330.463C60.4427 329.824 61.4073 329.185 62.3718 328.546Z" fill="white"/>
<path d="M79.4121 329.505C80.6981 330.464 81.0196 332.062 81.0196 333.979V343.247H78.4476V341.33C78.1261 341.969 77.4831 342.608 76.5185 342.928C75.554 343.247 74.5895 343.567 73.625 343.567C72.0175 343.567 70.4099 343.247 69.4454 342.289C68.4809 341.33 67.8379 340.371 67.8379 339.093C67.8379 337.814 68.4809 336.536 69.4454 335.897C70.4099 334.938 72.0175 334.618 74.268 334.618H78.7691V333.979C78.7691 332.701 78.4476 331.742 77.8046 331.103C77.1616 330.464 76.197 330.144 74.5895 330.144C73.625 330.144 72.6605 330.144 72.0175 330.464C71.0529 330.783 70.4099 331.103 69.7669 331.742L68.4809 329.824C69.1239 329.185 70.0884 328.866 71.3745 328.226C72.339 327.907 73.625 327.587 74.911 327.587C76.84 327.907 78.4476 328.546 79.4121 329.505ZM76.84 340.691C77.4831 340.371 78.1261 339.412 78.4476 338.773V336.536H74.268C72.0175 336.536 70.7314 337.175 70.7314 338.773C70.7314 339.412 71.0529 340.051 71.696 340.691C72.339 341.01 72.982 341.33 74.268 341.33C75.2325 341.33 75.8755 341.01 76.84 340.691Z" fill="white"/>
<path d="M89.057 342.608C87.771 341.969 86.8065 341.01 86.1635 339.732C85.5205 338.453 85.199 337.175 85.199 335.577C85.199 333.979 85.5205 332.701 86.1635 331.422C86.8065 330.144 87.771 329.185 89.057 328.546C90.3431 327.907 91.6291 327.587 93.2366 327.587C94.5226 327.587 95.8087 327.907 97.0947 328.546C98.0592 329.185 99.0237 329.824 99.6667 331.103L97.4162 332.381C97.0947 331.742 96.4517 331.103 95.4872 330.783C94.8441 330.464 93.8796 330.144 93.2366 330.144C92.2721 330.144 91.3076 330.464 90.6646 330.783C90.0216 331.103 89.3785 331.742 88.7355 332.701C88.414 333.66 88.0925 334.299 88.0925 335.577C88.0925 336.536 88.414 337.495 88.7355 338.453C89.057 339.412 89.7001 340.051 90.6646 340.371C91.6291 340.691 92.2721 341.01 93.2366 341.01C94.2011 341.01 94.8441 340.691 95.4872 340.371C96.1302 340.051 96.7732 339.412 97.4162 338.773L99.6667 340.051C99.0237 341.01 98.3807 341.969 97.0947 342.608C95.8087 343.247 94.8441 343.567 93.2366 343.567C91.6291 343.567 90.0216 343.247 89.057 342.608Z" fill="white"/>
<path d="M111.884 342.289C111.562 342.608 110.919 342.928 110.276 342.928C109.633 343.247 108.99 343.247 108.347 343.247C106.739 343.247 105.453 342.928 104.81 341.969C104.167 341.01 103.524 340.051 103.524 338.453V330.144H100.952V327.907H103.524V324.711H106.418V327.907H110.919V330.144H106.418V338.453C106.418 339.412 106.739 340.051 107.061 340.371C107.382 340.691 108.026 341.01 108.99 341.01C109.955 341.01 110.598 340.691 111.241 340.371L111.884 342.289Z" fill="white"/>
<path d="M115.099 324.711C114.778 324.391 114.456 324.072 114.456 323.432C114.456 322.793 114.778 322.474 115.099 322.154C115.421 321.834 116.064 321.515 116.385 321.515C116.707 321.515 117.35 321.834 117.671 322.154C117.993 322.474 118.314 322.793 118.314 323.432C118.314 324.072 117.993 324.391 117.671 324.711C117.35 325.03 116.707 325.35 116.385 325.35C116.064 325.35 115.421 325.03 115.099 324.711ZM115.099 328.226H117.993V343.567H115.099V328.226Z" fill="white"/>
<path d="M125.708 342.608C124.422 341.969 123.458 341.01 122.815 339.732C122.172 338.453 121.85 337.175 121.85 335.577C121.85 333.979 122.172 332.701 122.815 331.422C123.458 330.144 124.422 329.185 125.708 328.546C126.994 327.907 128.28 327.587 129.888 327.587C131.496 327.587 132.782 327.907 134.068 328.546C135.354 329.185 136.318 330.144 136.961 331.422C137.604 332.701 137.926 333.979 137.926 335.577C137.926 337.175 137.604 338.453 136.961 339.732C136.318 341.01 135.354 341.969 134.068 342.608C132.782 343.247 131.496 343.567 129.888 343.567C128.28 343.567 126.994 343.247 125.708 342.608ZM132.46 340.371C133.103 340.051 133.746 339.412 134.389 338.453C135.032 337.495 135.032 336.855 135.032 335.577C135.032 334.618 134.711 333.66 134.389 332.701C134.068 331.742 133.425 331.103 132.46 330.783C131.817 330.464 130.852 330.144 129.888 330.144C128.923 330.144 127.959 330.464 127.316 330.783C126.673 331.103 126.03 331.742 125.387 332.701C125.065 333.66 124.744 334.299 124.744 335.577C124.744 336.536 125.065 337.495 125.387 338.453C125.708 339.412 126.351 340.051 127.316 340.371C127.959 340.691 128.923 341.01 129.888 341.01C130.852 341.01 131.817 340.691 132.46 340.371Z" fill="white"/>
<path d="M154.323 329.505C155.609 330.783 155.93 332.381 155.93 334.299V342.928H153.037V334.618C153.037 333.02 152.715 332.062 152.072 331.422C151.429 330.783 150.465 330.144 148.857 330.144C147.249 330.144 146.285 330.464 145.32 331.422C144.356 332.381 144.034 333.66 144.034 335.258V343.247H141.462V327.907H144.034V330.144C144.677 329.505 145.32 328.866 146.285 328.226C147.249 327.587 148.214 327.587 149.5 327.587C151.751 327.907 153.358 328.546 154.323 329.505Z" fill="white"/>
<path d="M169.434 323.113H178.114C180.365 323.113 182.294 323.432 183.902 324.391C185.509 325.35 186.795 326.309 187.76 327.907C188.724 329.505 189.046 331.103 189.046 333.02C189.046 334.938 188.724 336.855 187.76 338.134C186.795 339.732 185.509 340.691 183.902 341.649C182.294 342.608 180.365 342.928 178.114 342.928H169.434V323.113ZM177.793 340.691C179.4 340.691 181.008 340.371 181.973 339.732C182.937 339.093 184.223 338.134 184.866 337.175C185.509 335.897 185.831 334.618 185.831 333.34C185.831 332.061 185.509 330.463 184.866 329.505C184.223 328.546 183.259 327.587 181.973 326.948C180.687 326.309 179.4 325.989 177.793 325.989H172.327V341.01H177.793V340.691Z" fill="white"/>
<path d="M206.728 336.536H194.19C194.511 337.814 194.833 339.093 196.119 339.732C197.083 340.691 198.369 341.01 199.977 341.01C201.906 341.01 203.192 340.371 204.478 339.093L206.085 341.01C205.442 341.969 204.478 342.289 203.513 342.928C202.549 343.247 201.263 343.567 199.977 343.567C198.369 343.567 196.762 343.247 195.797 342.608C194.511 341.969 193.547 341.01 192.904 339.732C192.261 338.453 191.939 337.175 191.939 335.577C191.939 333.979 192.261 332.701 192.904 331.422C193.547 330.144 194.511 329.185 195.797 328.546C197.083 327.907 198.369 327.587 199.655 327.587C201.263 327.587 202.549 327.907 203.513 328.546C204.799 329.185 205.442 330.144 206.085 331.422C206.728 332.701 207.05 333.979 207.05 335.577C206.728 335.897 206.728 336.216 206.728 336.536ZM195.797 331.422C194.833 332.381 194.511 333.34 194.19 334.618H204.156C204.156 333.34 203.513 332.381 202.549 331.422C201.584 330.464 200.62 330.144 199.334 330.144C198.048 330.144 196.762 330.783 195.797 331.422Z" fill="white"/>
<path d="M211.551 342.928C210.265 342.608 209.622 342.289 208.979 341.649L210.265 339.412C210.908 340.051 211.872 340.371 212.837 340.691C213.801 341.01 214.766 341.01 215.73 341.01C218.302 341.01 219.267 340.371 219.267 339.093C219.267 338.773 218.945 338.134 218.624 338.134C218.302 337.814 217.981 337.814 217.338 337.495C216.695 337.495 216.052 337.175 215.087 337.175C213.801 336.855 212.837 336.855 212.194 336.536C211.551 336.216 210.586 335.897 210.265 335.257C209.622 334.618 209.3 333.979 209.3 332.701C209.3 331.422 209.943 330.144 210.908 329.505C212.194 328.546 213.48 328.226 215.409 328.226C216.373 328.226 217.338 328.226 218.624 328.546C219.588 328.865 220.553 329.185 221.196 329.505L219.91 331.742C218.624 330.783 217.338 330.463 215.409 330.463C214.123 330.463 213.48 330.783 212.837 331.103C212.194 331.422 211.872 332.061 211.872 332.701C211.872 333.34 212.194 333.659 212.515 333.979C212.837 334.299 213.158 334.618 213.801 334.618C214.444 334.618 215.087 334.938 216.052 334.938C217.338 335.257 218.302 335.257 218.945 335.577C219.588 335.897 220.231 336.216 220.874 336.855C221.517 337.495 221.839 338.134 221.839 339.412C221.839 340.691 221.196 341.969 219.91 342.608C218.624 343.567 217.016 343.887 215.087 343.887C213.801 343.567 212.515 343.247 211.551 342.928Z" fill="white"/>
<path d="M225.375 324.711C225.053 324.391 224.732 324.072 224.732 323.432C224.732 322.793 225.053 322.474 225.375 322.154C225.696 321.834 226.339 321.515 226.661 321.515C226.982 321.515 227.625 321.834 227.947 322.154C228.269 322.474 228.59 322.793 228.59 323.432C228.59 324.072 228.269 324.391 227.947 324.711C227.625 325.03 226.982 325.35 226.661 325.35C226.339 325.35 225.696 325.03 225.375 324.711ZM225.053 328.226H227.947V343.567H225.053V328.226Z" fill="white"/>
<path d="M247.88 328.226V341.33C247.88 343.887 247.237 346.124 245.951 347.082C244.665 348.041 242.736 349 239.843 349C238.235 349 236.949 348.68 235.663 348.361C234.377 348.041 233.413 347.402 232.448 346.763L233.734 344.526C234.377 345.165 235.342 345.484 236.306 346.124C237.271 346.443 238.557 346.763 239.521 346.763C241.45 346.763 242.736 346.443 243.379 345.484C244.344 344.526 244.665 343.247 244.665 341.649V340.371C244.022 341.01 243.058 341.649 242.093 342.289C241.129 342.928 240.164 342.928 238.878 342.928C237.271 342.928 235.985 342.608 235.02 341.969C233.734 341.33 232.77 340.371 232.127 339.412C231.484 338.134 231.162 336.855 231.162 335.577C231.162 334.299 231.484 333.02 232.127 331.742C232.77 330.463 233.734 329.824 235.02 329.185C236.306 328.546 237.592 328.226 238.878 328.226C240.164 328.226 241.129 328.546 242.093 328.865C243.058 329.185 244.022 329.824 244.665 330.783V328.546H247.88V328.226ZM242.736 339.732C243.379 339.412 244.022 338.773 244.665 337.814C244.987 337.175 245.308 336.216 245.308 335.257C245.308 333.659 244.665 332.701 243.701 331.742C242.736 330.783 241.45 330.463 239.843 330.463C238.235 330.463 236.949 330.783 235.985 331.742C235.02 332.701 234.377 333.979 234.377 335.257C234.377 336.216 234.699 337.175 235.02 337.814C235.342 338.453 235.985 339.093 236.949 339.732C237.914 340.371 238.557 340.371 239.843 340.371C240.807 340.371 241.772 340.051 242.736 339.732Z" fill="white"/>
<path d="M266.207 329.505C267.493 330.783 267.815 332.381 267.815 334.299V342.928H264.921V334.618C264.921 333.02 264.599 332.062 263.956 331.422C263.313 330.783 262.349 330.144 260.741 330.144C259.134 330.144 258.169 330.464 257.205 331.422C256.24 332.381 255.919 333.66 255.919 335.258V343.247H253.025V327.907H255.597V330.144C256.24 329.505 256.883 328.866 257.848 328.226C258.812 327.587 259.777 327.587 261.063 327.587C263.313 327.907 264.921 328.546 266.207 329.505Z" fill="white"/>
<path d="M286.783 336.536H274.244C274.566 337.814 274.887 339.093 276.173 339.732C277.138 340.691 278.424 341.01 280.031 341.01C281.96 341.01 283.246 340.371 284.532 339.093L286.14 341.01C285.497 341.969 284.532 342.289 283.568 342.928C282.603 343.247 281.317 343.567 280.031 343.567C278.424 343.567 276.816 343.247 275.852 342.608C274.566 341.969 273.601 341.01 272.958 339.732C272.315 338.453 271.994 337.175 271.994 335.577C271.994 333.979 272.315 332.701 272.958 331.422C273.601 330.144 274.566 329.185 275.852 328.546C277.138 327.907 278.424 327.587 279.71 327.587C281.317 327.587 282.603 327.907 283.568 328.546C284.854 329.185 285.497 330.144 286.14 331.422C286.783 332.701 287.105 333.979 287.105 335.577C286.783 335.897 286.783 336.216 286.783 336.536ZM275.852 331.422C274.887 332.381 274.566 333.34 274.244 334.618H284.211C284.211 333.34 283.568 332.381 282.603 331.422C281.639 330.464 280.674 330.144 279.388 330.144C278.102 330.144 276.816 330.783 275.852 331.422Z" fill="white"/>
<path d="M295.463 328.546C296.428 328.226 297.714 327.907 299 327.907V330.463C299 330.463 298.678 330.463 298.357 330.463C296.749 330.463 295.785 330.783 294.82 331.742C293.856 332.701 293.534 333.979 293.534 335.577V343.247H290.641V327.907H293.213V330.463C293.856 329.824 294.499 329.185 295.463 328.546Z" fill="white"/>
</g>
<g filter="url(#filter2_d)">
<path d="M104.167 15.9799L104.489 141.581L137.283 164.273V0L104.167 15.9799Z" fill="url(#paint0_linear)"/>
</g>
<g filter="url(#filter3_d)">
<path d="M69.4447 169.067L68.8016 116.653L37.9371 125.602L38.2586 186.325L137.282 246.729V208.058L69.4447 169.067Z" fill="url(#paint1_linear)"/>
</g>
<g filter="url(#filter4_d)">
<path d="M193.224 230.749V104.828L160.431 82.456V246.729L193.224 230.749Z" fill="url(#paint2_linear)"/>
</g>
<g filter="url(#filter5_d)">
<path d="M228.269 77.6621L228.59 130.076L259.455 121.127V60.4038L160.431 0V38.6712L228.269 77.6621Z" fill="url(#paint3_linear)"/>
</g>
</g>
<defs>
<filter id="filter0_d" x="-1.10669" y="258.554" width="299.606" height="54.6612" filterUnits="userSpaceOnUse" color-interpolation-filters="sRGB">
<feFlood flood-opacity="0" result="BackgroundImageFix"/>
<feColorMatrix in="SourceAlpha" type="matrix" values="0 0 0 0 0 0 0 0 0 0 0 0 0 0 0 0 0 0 127 0"/>
<feOffset dy="4"/>
<feGaussianBlur stdDeviation="2"/>
<feColorMatrix type="matrix" values="0 0 0 0 0 0 0 0 0 0 0 0 0 0 0 0 0 0 0.25 0"/>
<feBlend mode="normal" in2="BackgroundImageFix" result="effect1_dropShadow"/>
<feBlend mode="normal" in="SourceGraphic" in2="effect1_dropShadow" result="shape"/>
</filter>
<filter id="filter1_d" x="-4" y="321.515" width="307" height="35.4853" filterUnits="userSpaceOnUse" color-interpolation-filters="sRGB">
<feFlood flood-opacity="0" result="BackgroundImageFix"/>
<feColorMatrix in="SourceAlpha" type="matrix" values="0 0 0 0 0 0 0 0 0 0 0 0 0 0 0 0 0 0 127 0"/>
<feOffset dy="4"/>
<feGaussianBlur stdDeviation="2"/>
<feColorMatrix type="matrix" values="0 0 0 0 0 0 0 0 0 0 0 0 0 0 0 0 0 0 0.25 0"/>
<feBlend mode="normal" in2="BackgroundImageFix" result="effect1_dropShadow"/>
<feBlend mode="normal" in="SourceGraphic" in2="effect1_dropShadow" result="shape"/>
</filter>
<filter id="filter2_d" x="100.167" y="0" width="41.115" height="172.273" filterUnits="userSpaceOnUse" color-interpolation-filters="sRGB">
<feFlood flood-opacity="0" result="BackgroundImageFix"/>
<feColorMatrix in="SourceAlpha" type="matrix" values="0 0 0 0 0 0 0 0 0 0 0 0 0 0 0 0 0 0 127 0"/>
<feOffset dy="4"/>
<feGaussianBlur stdDeviation="2"/>
<feColorMatrix type="matrix" values="0 0 0 0 0 0 0 0 0 0 0 0 0 0 0 0 0 0 0.25 0"/>
<feBlend mode="normal" in2="BackgroundImageFix" result="effect1_dropShadow"/>
<feBlend mode="normal" in="SourceGraphic" in2="effect1_dropShadow" result="shape"/>
</filter>
<filter id="filter3_d" x="33.9371" y="116.653" width="107.345" height="138.076" filterUnits="userSpaceOnUse" color-interpolation-filters="sRGB">
<feFlood flood-opacity="0" result="BackgroundImageFix"/>
<feColorMatrix in="SourceAlpha" type="matrix" values="0 0 0 0 0 0 0 0 0 0 0 0 0 0 0 0 0 0 127 0"/>
<feOffset dy="4"/>
<feGaussianBlur stdDeviation="2"/>
<feColorMatrix type="matrix" values="0 0 0 0 0 0 0 0 0 0 0 0 0 0 0 0 0 0 0.25 0"/>
<feBlend mode="normal" in2="BackgroundImageFix" result="effect1_dropShadow"/>
<feBlend mode="normal" in="SourceGraphic" in2="effect1_dropShadow" result="shape"/>
</filter>
<filter id="filter4_d" x="156.431" y="82.456" width="40.7935" height="172.273" filterUnits="userSpaceOnUse" color-interpolation-filters="sRGB">
<feFlood flood-opacity="0" result="BackgroundImageFix"/>
<feColorMatrix in="SourceAlpha" type="matrix" values="0 0 0 0 0 0 0 0 0 0 0 0 0 0 0 0 0 0 127 0"/>
<feOffset dy="4"/>
<feGaussianBlur stdDeviation="2"/>
<feColorMatrix type="matrix" values="0 0 0 0 0 0 0 0 0 0 0 0 0 0 0 0 0 0 0.25 0"/>
<feBlend mode="normal" in2="BackgroundImageFix" result="effect1_dropShadow"/>
<feBlend mode="normal" in="SourceGraphic" in2="effect1_dropShadow" result="shape"/>
</filter>
<filter id="filter5_d" x="156.431" y="0" width="107.024" height="138.076" filterUnits="userSpaceOnUse" color-interpolation-filters="sRGB">
<feFlood flood-opacity="0" result="BackgroundImageFix"/>
<feColorMatrix in="SourceAlpha" type="matrix" values="0 0 0 0 0 0 0 0 0 0 0 0 0 0 0 0 0 0 127 0"/>
<feOffset dy="4"/>
<feGaussianBlur stdDeviation="2"/>
<feColorMatrix type="matrix" values="0 0 0 0 0 0 0 0 0 0 0 0 0 0 0 0 0 0 0.25 0"/>
<feBlend mode="normal" in2="BackgroundImageFix" result="effect1_dropShadow"/>
<feBlend mode="normal" in="SourceGraphic" in2="effect1_dropShadow" result="shape"/>
</filter>
<linearGradient id="paint0_linear" x1="83.6268" y1="51.3238" x2="172.793" y2="103.111" gradientUnits="userSpaceOnUse">
<stop offset="0.162" stop-color="#5AC2DE"/>
<stop offset="0.5391" stop-color="#1899A7"/>
<stop offset="0.824" stop-color="#046E95"/>
</linearGradient>
<linearGradient id="paint1_linear" x1="29.8002" y1="139.655" x2="156.658" y2="213.333" gradientUnits="userSpaceOnUse">
<stop offset="0.162" stop-color="#5AC2DE"/>
<stop offset="0.5391" stop-color="#1899A7"/>
<stop offset="0.824" stop-color="#046E95"/>
</linearGradient>
<linearGradient id="paint2_linear" x1="213.941" y1="195.359" x2="124.775" y2="143.571" gradientUnits="userSpaceOnUse">
<stop offset="0.162" stop-color="#5AC2DE"/>
<stop offset="0.5391" stop-color="#1899A7"/>
<stop offset="0.824" stop-color="#046E95"/>
</linearGradient>
<linearGradient id="paint3_linear" x1="267.768" y1="107.028" x2="140.91" y2="33.3495" gradientUnits="userSpaceOnUse">
<stop offset="0.162" stop-color="#5AC2DE"/>
<stop offset="0.5391" stop-color="#1899A7"/>
<stop offset="0.824" stop-color="#046E95"/>
</linearGradient>
<clipPath id="clip0">
<rect width="299" height="349" fill="white"/>
</clipPath>
</defs>
</svg>
