<svg width="34" height="35" viewBox="0 0 34 35" fill="none" xmlns="http://www.w3.org/2000/svg">
<path d="M16.9999 19.7139C27.2157 19.7139 32.8418 24.6888 32.8418 33.7224C32.8418 34.4279 32.2863 34.9998 31.6009 34.9998H2.39898C1.7136 34.9998 1.15811 34.4279 1.15811 33.7224C1.15805 24.6893 6.78418 19.7139 16.9999 19.7139ZM30.3149 32.445C29.8268 25.6907 25.3535 22.2687 16.9999 22.2687C8.64635 22.2687 4.17296 25.6907 3.68447 32.445H30.3149Z" fill="#AAAAAA"/>
<path d="M16.9998 0C21.6924 0 25.231 3.71588 25.231 8.64315C25.231 13.7147 21.5385 17.8402 16.9998 17.8402C12.4612 17.8402 8.76871 13.7147 8.76871 8.64356C8.76871 3.71588 12.3072 0 16.9998 0ZM16.9998 15.2859C20.1703 15.2859 22.7492 12.3062 22.7492 8.64356C22.7492 5.11547 20.3312 2.55473 16.9998 2.55473C13.7218 2.55473 11.2504 5.17207 11.2504 8.64356C11.2504 12.3062 13.8294 15.2859 16.9998 15.2859Z" fill="#AAAAAA"/>
</svg>
