<svg width="50" height="50" viewBox="0 0 50 50" fill="none" xmlns="http://www.w3.org/2000/svg">
<g clip-path="url(#clip0)">
<path d="M34.7807 40H27.2807V33.3334C27.2807 31.0322 25.4152 29.1667 23.1141 29.1667H18.1141V24.5917L29.4307 16.5084C29.6141 16.3786 29.7373 16.1802 29.7724 15.9584C29.8056 15.7372 29.7485 15.512 29.6141 15.3334L27.1141 12C26.8447 11.6419 26.3403 11.5609 25.9724 11.8167L17.4307 17.725C18.9412 14.8794 17.8587 11.348 15.013 9.83773C12.1674 8.32731 8.63605 9.40981 7.12574 12.2554C5.91126 14.5435 6.35116 17.3583 8.20574 19.1667H7.28074C7.04564 19.1672 6.82157 19.2671 6.66407 19.4417L1.28074 25.425C-0.197281 27.0764 -0.124051 29.5956 1.44741 31.1584L5.85574 35.5917C6.02897 35.7651 6.2698 35.8536 6.51407 35.8334C6.76147 35.8143 6.98751 35.6861 7.13074 35.4834L8.11407 34.0917V49.1667C8.11407 49.6269 8.4872 50 8.94741 50H13.9474C14.4076 50 14.7807 49.6269 14.7807 49.1667V35.8334H20.6141V40H18.1141C17.6539 40 17.2807 40.3731 17.2807 40.8334V49.1667C17.2807 49.6269 17.6539 50 18.1141 50H34.7807C35.2409 50 35.6141 49.6269 35.6141 49.1667V40.8334C35.6141 40.3731 35.241 40 34.7807 40ZM8.11407 15C8.11407 12.6989 9.97959 10.8334 12.2807 10.8334C14.5819 10.8334 16.4474 12.6989 16.4474 15C16.4474 17.3012 14.5819 19.1667 12.2807 19.1667C9.97959 19.1667 8.11407 17.3012 8.11407 15ZM14.2641 20.8334L13.1141 23.1334L11.9641 20.8334H14.2641ZM8.11407 29.7584L6.78074 28.3334L8.11407 27V29.7584ZM13.9474 34.1667C13.4872 34.1667 13.1141 34.5398 13.1141 35V48.3334H9.78074V25C9.77907 24.6636 9.57522 24.3612 9.26407 24.2334C8.95376 24.1028 8.59543 24.1719 8.35574 24.4084L5.02241 27.7417C4.7048 28.0658 4.7048 28.5843 5.02241 28.9084L7.74741 31.75L6.33907 33.7167L2.60574 30C1.65376 29.0579 1.61334 27.5329 2.51407 26.5417L7.65574 20.8334H10.0974L12.3724 25.375C12.5823 25.7846 13.0844 25.9466 13.4941 25.7367C13.6496 25.657 13.7762 25.5305 13.8557 25.375L16.2641 20.5667L26.2641 13.6417L27.7724 15.65L16.7974 23.4917C16.5789 23.6472 16.4487 23.8985 16.4474 24.1667V30C16.4474 30.4602 16.8205 30.8334 17.2807 30.8334H23.1141C24.4948 30.8334 25.6141 31.9526 25.6141 33.3334V40H22.2807V35C22.2807 34.5398 21.9076 34.1667 21.4474 34.1667H13.9474ZM33.9474 48.3334H18.9474V41.6667H33.9474V48.3334Z" fill="#AAAAAA"/>
<path d="M48.9474 6.66667C45.7258 6.66667 43.1141 4.055 43.1141 0.833333C43.1141 0.373125 42.741 0 42.2808 0C41.8206 0 41.4474 0.373125 41.4474 0.833333C41.4474 4.055 38.8358 6.66667 35.6141 6.66667C35.1539 6.66667 34.7808 7.03979 34.7808 7.5C34.7808 7.96021 35.1539 8.33333 35.6141 8.33333C38.8358 8.33333 41.4474 10.945 41.4474 14.1667C41.4474 14.6269 41.8206 15 42.2808 15C42.741 15 43.1141 14.6269 43.1141 14.1667C43.1141 10.945 45.7258 8.33333 48.9474 8.33333C49.4076 8.33333 49.7808 7.96021 49.7808 7.5C49.7808 7.03979 49.4077 6.66667 48.9474 6.66667ZM42.2808 10.7333C41.5623 9.34792 40.4329 8.21854 39.0474 7.5C40.4328 6.78146 41.5622 5.65208 42.2808 4.26667C42.9993 5.65208 44.1287 6.78146 45.5141 7.5C44.1287 8.21854 42.9993 9.34792 42.2808 10.7333Z" fill="#AAAAAA"/>
<path d="M28.2255 20.9932L25.9541 22.6587L26.9396 24.0027L29.211 22.3372L28.2255 20.9932Z" fill="#AAAAAA"/>
<path d="M38.4572 13.4937L30.1265 19.6069L31.1125 20.9506L39.4432 14.8374L38.4572 13.4937Z" fill="#AAAAAA"/>
<path d="M35.1474 9.30487L30.1484 12.6377L31.0729 14.0244L36.0719 10.6915L35.1474 9.30487Z" fill="#AAAAAA"/>
</g>
<defs>
<clipPath id="clip0">
<rect width="50" height="50" fill="white"/>
</clipPath>
</defs>
</svg>
