<svg width="42" height="42" viewBox="0 0 42 42" fill="none" xmlns="http://www.w3.org/2000/svg">
<path d="M40.7772 7.46516C40.7747 7.46516 40.7721 7.46484 40.7695 7.46484H29.6133V6.23438C29.6133 4.19897 27.9573 2.54297 25.9219 2.54297H16.0781C14.0427 2.54297 12.3867 4.19897 12.3867 6.23438V7.46484H1.23047C0.54538 7.46484 0 8.02625 0 8.69531V35.7656C0 37.801 1.65601 39.457 3.69141 39.457H38.3086C40.344 39.457 42 37.801 42 35.7656V8.72127C42 8.71967 42 8.71806 42 8.71646C41.9529 7.90833 41.4559 7.46965 40.7772 7.46516ZM14.8477 6.23438C14.8477 5.55602 15.3998 5.00391 16.0781 5.00391H25.9219C26.6002 5.00391 27.1523 5.55602 27.1523 6.23438V7.46484H14.8477V6.23438ZM39.0623 9.92578L35.2411 21.389C35.0735 21.8924 34.6044 22.2305 34.0741 22.2305H27.1523V21C27.1523 20.3204 26.6015 19.7695 25.9219 19.7695H16.0781C15.3985 19.7695 14.8477 20.3204 14.8477 21V22.2305H7.92595C7.39563 22.2305 6.92651 21.8924 6.75893 21.389L2.93774 9.92578H39.0623ZM24.6914 22.2305V24.6914H17.3086V22.2305H24.6914ZM39.5391 35.7656C39.5391 36.444 38.987 36.9961 38.3086 36.9961H3.69141C3.01305 36.9961 2.46094 36.444 2.46094 35.7656V16.2778L4.42424 22.1673C4.92732 23.6772 6.33467 24.6914 7.92595 24.6914H14.8477V25.9219C14.8477 26.6015 15.3985 27.1523 16.0781 27.1523H25.9219C26.6015 27.1523 27.1523 26.6015 27.1523 25.9219V24.6914H34.0741C35.6653 24.6914 37.0727 23.6772 37.5758 22.1673L39.5391 16.2778V35.7656Z" fill="#AAAAAA"/>
</svg>
